<?xml version="1.0" encoding="UTF-8" standalone="no"?>
<svg
   xmlns:dc="http://purl.org/dc/elements/1.1/"
   xmlns:cc="http://creativecommons.org/ns#"
   xmlns:rdf="http://www.w3.org/1999/02/22-rdf-syntax-ns#"
   xmlns:svg="http://www.w3.org/2000/svg"
   xmlns="http://www.w3.org/2000/svg"
   xmlns:sodipodi="http://sodipodi.sourceforge.net/DTD/sodipodi-0.dtd"
   xmlns:inkscape="http://www.inkscape.org/namespaces/inkscape"
   id="Layer_1"
   viewBox="0 0 452 216"
   version="1.1"
   sodipodi:docname="connect_devices.svg"
   inkscape:version="0.92.4 5da689c313, 2019-01-14">
  <metadata
     id="metadata3841">
    <rdf:RDF>
      <cc:Work
         rdf:about="">
        <dc:format>image/svg+xml</dc:format>
        <dc:type
           rdf:resource="http://purl.org/dc/dcmitype/StillImage" />
      </cc:Work>
    </rdf:RDF>
  </metadata>
  <defs
     id="defs3839" />
  <sodipodi:namedview
     pagecolor="#ffffff"
     bordercolor="#666666"
     borderopacity="1"
     objecttolerance="10"
     gridtolerance="10"
     guidetolerance="10"
     inkscape:pageopacity="0"
     inkscape:pageshadow="2"
     inkscape:window-width="1880"
     inkscape:window-height="980"
     id="namedview3837"
     showgrid="false"
     inkscape:zoom="2.5829039"
     inkscape:cx="261.04831"
     inkscape:cy="93.834683"
     inkscape:window-x="20"
     inkscape:window-y="50"
     inkscape:window-maximized="1"
     inkscape:current-layer="Layer_1" />
  <style
     id="style3797">.st0{fill:#282828;} .st1{fill:#FFFFFF;} .st2{fill:none;stroke:#FFFFFF;stroke-width:4;stroke-miterlimit:10;} .st3{fill:#222326;}</style>
  <g
     id="Layer_3">
    <path
       class="st0"
       d="M 0,0 H 452 V 216 H 0 Z"
       id="path3799"
       style="fill:#3c3d3e;fill-opacity:1"
       inkscape:connector-curvature="0" />
    <path
       class="st1"
       d="M 339.7,16.4 V 174.3 H 88.5 V 16.4 h 251.2 m 1,-4 H 87.5 c -1.7,0 -3,1.4 -3,3 v 159.9 c 0,1.6 1.3,3 3,3 h 253.3 c 1.6,0 3,-1.4 3,-3 V 15.4 c -0.1,-1.7 -1.4,-3 -3.1,-3 z m -90.6,188.5 c 0,0.6 -0.4,1 -1,1 h -70 c -0.6,0 -1,-0.4 -1,-1 v -2 c 0,-0.6 0.4,-1 1,-1 h 70 c 0.6,0 1,0.4 1,1 z"
       id="path3801"
       inkscape:connector-curvature="0"
       style="fill:#ffffff" />
    <path
       class="st0"
       d="m 13.7,190.4 c -3.3,0 -6,-2.7 -6,-6 V 103 c 0,-3.3 2.7,-6 6,-6 h 126 c 3.3,0 6,2.7 6,6 v 81.4 c 0,3.3 -2.7,6 -6,6 z"
       id="path3803"
       inkscape:connector-curvature="0"
       style="fill:#3c3d3e;fill-opacity:1" />
    <path
       class="st0"
       d="m 139.7,100 c 1.6,0 3,1.3 3,3 v 81.4 c 0,1.6 -1.4,3 -3,3 h -126 c -1.6,0 -3,-1.4 -3,-3 V 103 c 0,-1.7 1.4,-3 3,-3 h 126 m 0,-6 h -126 c -5,0 -9,4 -9,9 v 81.4 c 0,5 4,9 9,9 h 126 c 5,0 9,-4 9,-9 V 103 c 0,-4.9 -4.1,-9 -9,-9 z"
       id="path3805"
       inkscape:connector-curvature="0"
       style="fill:#3c3d3e;fill-opacity:1" />
    <path
       class="st1"
       d="m 138.7,104 v 79.4 H 14.7 V 104 h 124 m 1,-4 h -126 c -1.6,0 -3,1.3 -3,3 v 81.4 c 0,1.6 1.4,3 3,3 h 126 c 1.6,0 3,-1.4 3,-3 V 103 c 0,-1.6 -1.4,-3 -3,-3 z m 13.6,100.9 c 0,0.6 -0.4,1 -1,1 H 1 c -0.6,0 -1,-0.4 -1,-1 v -2 c 0,-0.6 0.4,-1 1,-1 h 151.3 c 0.6,0 1,0.4 1,1 z"
       id="path3807"
       inkscape:connector-curvature="0"
       style="fill:#ffffff" />
    <path
       class="st0"
       d="m 332.8,206.9 c -3.3,0 -6,-2.7 -6,-6 v -110 c 0,-3.3 2.7,-6 6,-6 H 409 c 3.3,0 6,2.7 6,6 v 110 c 0,3.3 -2.7,6 -6,6 z"
       id="path3809"
       inkscape:connector-curvature="0"
       style="fill:#3c3d3e;fill-opacity:1" />
    <path
       class="st0"
       d="m 409,87.9 c 1.6,0 3,1.3 3,3 v 110 c 0,1.6 -1.4,3 -3,3 h -76.2 c -1.6,0 -3,-1.4 -3,-3 v -110 c 0,-1.7 1.4,-3 3,-3 H 409 m 0,-6 h -76.2 c -5,0 -9,4 -9,9 v 110 c 0,5 4,9 9,9 H 409 c 5,0 9,-4 9,-9 v -110 c 0,-5 -4.1,-9 -9,-9 z"
       id="path3811"
       inkscape:connector-curvature="0"
       style="fill:#3c3d3e;fill-opacity:1" />
    <path
       class="st1"
       d="m 408,91.9 v 108 H 333.8 V 91.9 H 408 m 1,-4 h -76.2 c -1.6,0 -3,1.3 -3,3 v 110 c 0,1.6 1.4,3 3,3 H 409 c 1.6,0 3,-1.4 3,-3 v -110 c 0,-1.7 -1.4,-3 -3,-3 z"
       id="path3813"
       inkscape:connector-curvature="0"
       style="fill:#ffffff" />
    <path
       class="st1"
       d="m 370.9,144.3 c 10.2,0 18.5,8.3 18.5,18.5 0,10.2 -8.3,18.5 -18.5,18.5 -10.2,0 -18.5,-8.3 -18.5,-18.5 0,-10.2 8.3,-18.5 18.5,-18.5 m 0,-4 c -12.4,0 -22.5,10.1 -22.5,22.5 0,12.4 10.1,22.5 22.5,22.5 12.4,0 22.5,-10.1 22.5,-22.5 0,-12.5 -10.1,-22.5 -22.5,-22.5 z"
       id="path3815"
       inkscape:connector-curvature="0"
       style="fill:#ffffff" />
    <circle
       class="st1"
       cx="370.89999"
       cy="114.4"
       r="4"
       id="circle3817"
       style="fill:#ffffff" />
    <path
       class="st0"
       d="m 332.3,206.6 c -3.7,0 -7.2,-1.6 -9.6,-4.4 l -7,-8.2 H 300 l -7,8.2 c -2.4,2.8 -5.9,4.4 -9.6,4.4 -0.9,0 -1.8,-0.1 -2.6,-0.3 -3,-0.6 -5.7,-2.4 -7.4,-5.1 -1.7,-2.6 -2.3,-5.7 -1.6,-8.8 l 6.3,-29.5 c 1.2,-5.8 6.4,-10 12.4,-10 h 34.9 c 5.9,0 11.1,4.2 12.4,10 l 6.3,29.5 c 0.6,3 0.1,6.2 -1.6,8.8 -1.7,2.6 -4.3,4.4 -7.4,5.1 -1.1,0.3 -1.9,0.3 -2.8,0.3 z"
       id="path3819"
       inkscape:connector-curvature="0"
       style="fill:#3c3d3e;fill-opacity:1" />
    <path
       class="st0"
       d="m 325.3,156.1 c 4.5,0 8.5,3.2 9.4,7.6 l 6.3,29.5 c 1,4.7 -2,9.3 -6.7,10.3 -0.7,0.1 -1.3,0.2 -2,0.2 -2.8,0 -5.5,-1.2 -7.3,-3.4 l -8,-9.3 h -18.4 l -7.9,9.3 c -1.9,2.2 -4.5,3.4 -7.3,3.4 -0.7,0 -1.3,-0.1 -2,-0.2 -4.7,-1 -7.7,-5.6 -6.7,-10.3 l 6.3,-29.5 c 0.9,-4.4 4.9,-7.6 9.4,-7.6 h 34.9 m 0,-6 h -34.9 c -7.3,0 -13.8,5.2 -15.3,12.4 l -6.3,29.5 c -1.7,7.9 3.4,15.7 11.3,17.4 1.1,0.2 2.2,0.3 3.3,0.3 4.6,0 8.9,-2 11.9,-5.5 l 6.1,-7.2 h 12.8 l 6.1,7.2 c 3,3.5 7.3,5.5 11.9,5.5 1.1,0 2.2,-0.1 3.3,-0.3 7.9,-1.7 13,-9.5 11.3,-17.4 l -6.3,-29.5 c -1.5,-7.2 -7.9,-12.4 -15.2,-12.4 z"
       id="path3821"
       inkscape:connector-curvature="0"
       style="fill:#3c3d3e;fill-opacity:1" />
    <path
       class="st1"
       d="m 325.3,160.1 c 2.6,0 5,1.9 5.5,4.5 L 337,194 c 0.5,2.5 -1.1,5 -3.6,5.5 -0.4,0.1 -0.8,0.1 -1.2,0.1 -1.6,0 -3.2,-0.7 -4.3,-2 l -7.9,-9.3 -1.2,-1.4 h -22 l -1.2,1.4 -7.9,9.3 c -1.1,1.3 -2.6,2 -4.3,2 -0.4,0 -0.8,0 -1.2,-0.1 -2.5,-0.5 -4.1,-3 -3.6,-5.5 l 6.3,-29.5 c 0.5,-2.6 2.9,-4.5 5.5,-4.5 l 34.9,0.1 m 0,-4 h -34.9 c -4.5,0 -8.5,3.2 -9.4,7.6 l -6.3,29.5 c -1,4.7 2,9.3 6.7,10.3 0.7,0.1 1.3,0.2 2,0.2 2.8,0 5.5,-1.2 7.3,-3.4 l 7.9,-9.3 H 317 l 7.9,9.3 c 1.9,2.2 4.5,3.4 7.3,3.4 0.7,0 1.3,-0.1 2,-0.2 4.7,-1 7.7,-5.6 6.7,-10.3 l -6.3,-29.5 c -0.9,-4.5 -4.8,-7.6 -9.3,-7.6 z"
       id="path3823"
       inkscape:connector-curvature="0"
       style="fill:#ffffff" />
    <path
       class="st2"
       d="m 295.8,166.9 v 12 m 6,-6 h -12"
       id="path3825"
       inkscape:connector-curvature="0"
       style="fill:none;stroke:#ffffff;stroke-width:4;stroke-miterlimit:10" />
    <circle
       class="st1"
       cx="321.10001"
       cy="172.89999"
       r="4"
       id="circle3827"
       style="fill:#ffffff" />
    <path
       class="st3"
       d="m 421,201.9 c -0.5,0 -1,-0.5 -1,-1 v -42 c 0,-0.5 0.5,-1 1,-1 h 28 c 0.5,0 1,0.5 1,1 v 42 c 0,0.5 -0.5,1 -1,1 z"
       id="path3829"
       inkscape:connector-curvature="0"
       style="fill:#3c3d3e;fill-opacity:1" />
    <path
       class="st1"
       d="m 448,159.9 v 40 h -26 v -40 h 26 m 1,-4 h -28 c -1.6,0 -3,1.4 -3,3 v 42 c 0,1.6 1.4,3 3,3 h 28 c 1.6,0 3,-1.4 3,-3 v -42 c 0,-1.7 -1.4,-3 -3,-3 z"
       id="path3831"
       inkscape:connector-curvature="0"
       style="fill:#ffffff" />
    <circle
       class="st1"
       cx="435"
       cy="193.8"
       r="2"
       id="circle3833"
       style="fill:#ffffff" />
  </g>
</svg>
